<?xml version="1.0" standalone="no"?>
<!DOCTYPE svg PUBLIC "-//W3C//DTD SVG 20010904//EN"
 "http://www.w3.org/TR/2001/REC-SVG-20010904/DTD/svg10.dtd">
<svg version="1.0" xmlns="http://www.w3.org/2000/svg"
 width="128.000000pt" height="128.000000pt" viewBox="0 0 128.000000 128.000000"
 preserveAspectRatio="xMidYMid meet">

<g transform="translate(0.000000,128.000000) scale(0.100000,-0.100000)"
fill="#000000" stroke="none">
<path d="M0 1172 c0 -142 4 -147 90 -120 36 11 68 23 72 27 5 4 -5 22 -22 41
-34 41 -36 46 -12 52 12 4 25 -7 42 -34 14 -23 32 -38 44 -38 27 0 126 32 126
41 0 4 -15 23 -33 43 -31 32 -32 35 -13 38 15 2 30 -9 49 -34 15 -21 32 -38
37 -38 22 0 130 34 130 41 0 4 -15 21 -34 37 -26 23 -31 32 -20 36 9 4 27 -8
45 -29 17 -19 39 -35 48 -35 26 0 111 31 111 40 0 4 -11 15 -25 24 -21 14 -65
16 -330 16 l-305 0 0 -108z m97 -18 c-3 -3 -12 -4 -19 -1 -8 3 -5 6 6 6 11 1
17 -2 13 -5z"/>
<path d="M670 1260 c30 -23 32 -23 95 0 l50 18 -85 1 -85 1 25 -20z"/>
<path d="M778 1243 c-27 -8 -48 -18 -48 -23 0 -5 16 -21 35 -36 37 -28 65 -28
128 -1 l29 12 -45 33 c-25 17 -47 32 -49 31 -1 -1 -24 -8 -50 -16z"/>
<path d="M633 1201 c-29 -8 -53 -18 -53 -21 0 -4 15 -21 34 -39 l34 -33 54 17
c29 10 55 19 57 21 5 5 -61 75 -68 73 -4 -1 -30 -9 -58 -18z"/>
<path d="M880 1163 c-25 -9 -47 -17 -49 -20 -11 -9 65 -73 86 -73 28 0 103 29
103 40 0 10 -75 70 -86 69 -5 0 -29 -8 -54 -16z"/>
<path d="M463 1151 c-29 -8 -53 -18 -53 -22 0 -3 15 -22 33 -43 l32 -37 68 21
68 21 -33 39 c-37 43 -42 44 -115 21z"/>
<path d="M725 1110 c-27 -10 -51 -22 -53 -28 -1 -5 15 -25 37 -45 l40 -36 66
27 67 26 -43 38 c-24 20 -48 37 -54 37 -5 0 -32 -9 -60 -19z"/>
<path d="M303 1099 c-35 -11 -63 -23 -63 -27 0 -4 15 -24 33 -45 l32 -37 68
22 c37 12 67 25 67 28 0 9 -61 80 -68 79 -4 0 -35 -9 -69 -20z"/>
<path d="M982 1063 l-44 -15 34 -35 c51 -53 60 -56 122 -32 31 11 56 24 56 29
0 15 -83 70 -104 69 -12 0 -41 -7 -64 -16z"/>
<path d="M558 1048 c-32 -11 -58 -23 -58 -27 0 -4 18 -25 40 -46 l40 -39 54
18 c86 29 86 30 41 76 -21 22 -44 40 -50 39 -5 0 -36 -10 -67 -21z"/>
<path d="M113 1041 c-29 -9 -55 -20 -59 -24 -8 -7 44 -87 56 -87 10 0 144 41
149 45 2 2 -10 22 -25 44 -32 45 -43 47 -121 22z"/>
<path d="M850 1008 c-30 -12 -57 -22 -59 -25 -3 -2 15 -23 38 -47 l43 -44 64
27 c35 14 64 28 63 31 0 3 -21 21 -47 41 l-47 37 -55 -20z"/>
<path d="M378 988 c-32 -11 -58 -23 -58 -27 0 -13 60 -91 70 -91 14 0 124 41
134 50 11 11 -55 90 -74 89 -8 0 -41 -10 -72 -21z"/>
<path d="M1122 957 l-53 -20 38 -39 c57 -59 65 -62 123 -37 27 12 50 27 50 34
0 16 -79 86 -94 84 -6 -1 -35 -10 -64 -22z"/>
<path d="M668 938 c-32 -11 -58 -23 -58 -27 0 -4 20 -27 45 -51 l45 -44 57 24
c32 12 62 27 68 31 12 11 -63 89 -85 88 -8 0 -41 -10 -72 -21z"/>
<path d="M200 922 c-41 -13 -77 -26 -79 -28 -5 -4 59 -104 68 -104 3 0 41 12
83 26 l77 27 -15 26 c-9 14 -25 38 -37 52 l-22 26 -75 -25z"/>
<path d="M975 898 c-27 -10 -54 -24 -60 -29 -12 -12 72 -99 96 -99 9 0 43 12
75 26 l59 26 -54 49 c-30 27 -57 49 -60 48 -3 -1 -28 -10 -56 -21z"/>
<path d="M488 867 c-32 -11 -58 -26 -58 -31 1 -6 18 -31 40 -55 l39 -45 77 31
77 30 -43 46 c-23 26 -50 47 -59 46 -9 0 -42 -10 -73 -22z"/>
<path d="M380 840 c0 -5 5 -10 11 -10 5 0 7 5 4 10 -3 6 -8 10 -11 10 -2 0 -4
-4 -4 -10z"/>
<path d="M795 823 c-33 -14 -62 -27 -64 -29 -2 -2 15 -26 39 -54 49 -58 61
-60 144 -22 l60 28 -55 52 c-30 29 -56 52 -59 51 -3 0 -32 -12 -65 -26z"/>
<path d="M1231 814 c-25 -14 -78 -39 -118 -56 -41 -16 -79 -35 -86 -42 -15
-14 -149 -72 -159 -68 -5 1 -8 -1 -8 -6 0 -4 -15 -13 -32 -21 -18 -8 -91 -42
-163 -76 -71 -35 -146 -70 -165 -78 -64 -26 -77 -46 -73 -102 3 -27 10 -53 16
-57 8 -5 6 -9 -6 -14 -9 -3 -17 -12 -17 -20 0 -8 -5 -13 -12 -11 -6 1 -14 -9
-18 -23 l-6 -25 -8 23 c-5 15 -13 21 -22 18 -10 -4 -14 2 -14 19 0 15 -6 25
-14 25 -10 0 -12 7 -8 22 3 11 1 19 -4 16 -5 -4 -9 8 -9 25 1 61 -58 188 -94
202 -14 5 -13 -2 5 -75 4 -20 3 -22 -5 -10 -8 11 -11 12 -11 2 0 -20 -17 -5
-34 29 -13 26 -13 29 -1 19 8 -7 15 -20 15 -29 0 -13 2 -14 9 -2 7 10 3 24
-12 45 -12 17 -23 24 -25 17 -3 -9 -7 -9 -18 0 -23 19 -25 6 -9 -41 19 -53 19
-53 -5 -40 -16 9 -20 8 -20 -5 0 -18 -16 -20 -24 -2 -3 6 -4 3 -3 -8 1 -15 -3
-19 -21 -18 -20 3 -22 -1 -22 -44 0 -43 -1 -45 -15 -27 -14 18 -14 18 -15 -5
0 -13 11 -44 25 -68 27 -45 24 -55 -7 -26 -17 15 -18 14 -18 -45 0 -52 3 -62
20 -67 24 -8 27 -25 4 -25 -13 0 -12 -5 6 -30 12 -17 17 -30 11 -30 -22 0 -4
-45 20 -51 21 -5 18 -7 -21 -16 -33 -8 119 -11 565 -10 336 1 547 4 470 7 -77
3 -132 7 -123 8 17 2 46 42 31 42 -4 0 -3 4 2 8 13 9 45 79 45 97 0 8 7 15 15
15 8 0 15 6 15 14 0 7 12 39 26 69 14 31 26 66 27 77 1 11 4 20 8 20 10 0 40
80 34 91 -4 5 -2 9 4 9 12 0 45 85 37 98 -3 6 1 12 8 15 8 3 24 36 36 74 11
37 25 70 31 74 6 3 9 31 7 62 l-3 57 -44 -26z m-36 -144 c-3 -5 -12 -10 -18
-10 -7 0 -6 4 3 10 19 12 23 12 15 0z m-35 -14 c0 -3 -4 -8 -10 -11 -5 -3 -10
-1 -10 4 0 6 5 11 10 11 6 0 10 -2 10 -4z m-35 -25 c-6 -5 -21 -11 -35 -15
-21 -5 -20 -3 5 9 35 17 42 18 30 6z m-90 -41 c-3 -5 -12 -10 -18 -10 -7 0
-23 -8 -37 -17 -13 -9 -59 -34 -102 -54 -57 -28 -75 -33 -66 -20 6 10 16 18
22 18 20 0 146 64 146 74 0 6 4 8 8 5 4 -2 14 -1 22 5 20 12 33 11 25 -1z m14
-104 c-20 -7 -57 -24 -83 -39 -25 -14 -44 -22 -41 -16 10 15 118 68 140 68 12
0 5 -5 -16 -13z m-818 -47 c2 6 17 -13 33 -42 19 -32 23 -47 13 -38 -9 7 -17
9 -17 3 0 -5 7 -15 15 -22 8 -7 15 -17 15 -23 0 -6 -11 4 -25 23 -14 19 -23
40 -21 47 7 17 -4 44 -15 38 -4 -3 -13 5 -19 17 -10 21 -10 22 3 5 8 -10 17
-13 18 -8z m848 -22 c-2 -1 -15 -11 -29 -22 l-25 -20 19 23 c11 12 24 22 29
22 6 0 8 -1 6 -3z m-64 -47 c-3 -5 -1 -10 5 -10 6 0 1 -10 -10 -22 -17 -18
-18 -24 -6 -28 12 -4 12 -7 0 -18 -11 -10 -15 -8 -24 8 -9 16 -8 22 6 27 15 5
15 7 0 15 -18 10 -39 1 -31 -13 4 -5 8 -18 10 -28 3 -14 -1 -18 -11 -14 -8 3
-13 12 -10 20 4 9 0 13 -11 11 -9 -2 -18 4 -21 12 -3 8 -2 12 2 9 4 -4 26 4
49 16 46 26 61 30 52 15z m-246 -24 c-14 -13 -149 -75 -149 -68 0 9 119 71
139 71 8 1 12 -1 10 -3z m170 -65 c11 -7 9 -12 -10 -22 -21 -11 -23 -11 -11 3
10 13 10 17 0 21 -7 3 -8 6 -3 6 6 0 16 -3 24 -8z m-134 -11 c-3 -5 -12 -10
-18 -10 -7 0 -6 4 3 10 19 12 23 12 15 0z m-200 -10 c-3 -5 -12 -10 -18 -10
-7 0 -6 4 3 10 19 12 23 12 15 0z"/>
<path d="M54 788 c3 -18 20 -62 38 -98 38 -78 36 -75 44 -67 16 16 -60 197
-83 197 -3 0 -3 -15 1 -32z"/>
<path d="M288 793 c-38 -14 -68 -29 -68 -34 0 -5 15 -32 33 -59 36 -56 35 -56
130 -20 85 32 84 31 41 88 -22 28 -46 51 -54 51 -8 0 -45 -12 -82 -26z"/>
<path d="M608 743 c-38 -14 -68 -29 -68 -35 0 -9 79 -118 87 -118 17 0 153 67
153 75 0 11 -91 106 -100 104 -3 0 -35 -12 -72 -26z"/>
<path d="M156 717 c3 -10 9 -15 12 -12 3 3 0 11 -7 18 -10 9 -11 8 -5 -6z"/>
<path d="M498 703 c7 -3 16 -2 19 1 4 3 -2 6 -13 5 -11 0 -14 -3 -6 -6z"/>
<path d="M171 674 c0 -11 3 -14 6 -6 3 7 2 16 -1 19 -3 4 -6 -2 -5 -13z"/>
<path d="M408 657 c-43 -16 -78 -34 -78 -39 0 -6 19 -36 42 -69 46 -67 38 -66
150 -15 l70 32 -39 49 c-62 78 -58 77 -145 42z"/>
<path d="M157 632 c3 -12 9 -25 14 -28 14 -8 11 10 -6 32 -13 18 -14 18 -8 -4z"/>
<path d="M291 485 c0 -11 9 -36 20 -55 20 -35 19 -28 -7 40 -8 22 -13 27 -13
15z"/>
<path d="M391 384 c0 -11 3 -14 6 -6 3 7 2 16 -1 19 -3 4 -6 -2 -5 -13z"/>
</g>
</svg>
